<svg width="35" height="35" viewBox="0 0 35 35" fill="none" xmlns="http://www.w3.org/2000/svg">
<g clip-path="url(#clip0)">
<path d="M34.9541 20.9627L34.1059 16.2948C34.0552 16.0156 33.7873 15.8305 33.5084 15.8811C33.2292 15.9318 33.044 16.1993 33.0948 16.4785L33.9431 21.1473C34.0257 21.5971 33.928 22.0523 33.6681 22.4289C33.4083 22.8055 33.0174 23.0584 32.5658 23.1413L29.2579 23.7607C28.9789 23.8129 28.7952 24.0814 28.8474 24.3603C28.8936 24.6073 29.1094 24.7797 29.3518 24.7797C29.3832 24.7797 32.7531 24.1518 32.7531 24.1518C33.4729 24.0196 34.0983 23.615 34.5141 23.0124C34.9298 22.41 35.086 21.6816 34.9541 20.9627Z" fill="#333333"/>
<path d="M26.8344 24.1934L15.4467 26.2831C14.5175 26.4536 13.6227 25.8365 13.4523 24.9076L11.7271 15.5054C11.5566 14.5762 12.1737 13.6814 13.1027 13.511L30.2237 10.3689C30.6733 10.2864 31.1285 10.3839 31.5053 10.6439C31.8819 10.9037 32.1348 11.2946 32.2174 11.7444L32.6546 14.1273C32.7057 14.4065 32.9732 14.5911 33.2527 14.5401C33.5318 14.4888 33.7166 14.2211 33.6653 13.9419L33.2282 11.5589C33.0961 10.8391 32.6914 10.2137 32.0889 9.79791C31.4862 9.38217 30.758 9.22589 30.0381 9.35805L29.9896 9.36696L29.9117 8.94347C29.7921 8.29122 29.4255 7.72474 28.8798 7.34833C28.334 6.97198 27.6743 6.83063 27.0221 6.95026L9.39275 10.1851C8.04672 10.432 7.15254 11.7283 7.39953 13.0747L9.21804 22.9857C9.43735 24.181 10.484 25.0199 11.6585 25.0199C11.8066 25.0199 11.9569 25.0066 12.1077 24.9789L12.4102 24.9233L12.4414 25.093C12.6836 26.4129 13.8393 27.3392 15.1362 27.3392C15.2997 27.3392 15.4656 27.3245 15.6321 27.2939L27.0198 25.2042C27.2989 25.153 27.4837 24.8852 27.4325 24.6061C27.3813 24.327 27.1131 24.142 26.8344 24.1934ZM11.9222 23.9681C11.1332 24.113 10.3736 23.5889 10.229 22.8003L8.41046 12.8893C8.26576 12.1003 8.78962 11.3406 9.57829 11.196L27.2077 7.96118C27.5898 7.89096 27.9767 7.97386 28.2964 8.19441C28.6161 8.41495 28.8308 8.74684 28.9009 9.12908L28.9787 9.55256L12.9171 12.5002C11.4308 12.7729 10.4435 14.2043 10.7162 15.691L12.2247 23.9126L11.9222 23.9681Z" fill="#333333"/>
<path d="M18.2941 18.3262C18.2941 20.83 20.3311 22.867 22.8348 22.867C25.3386 22.867 27.3756 20.83 27.3756 18.3262C27.3756 15.8225 25.3386 13.7855 22.8348 13.7855C20.3311 13.7855 18.2941 15.8225 18.2941 18.3262ZM26.3478 18.3262C26.3478 20.2633 24.7719 21.8393 22.8348 21.8393C20.8977 21.8393 19.3218 20.2633 19.3218 18.3262C19.3218 16.3891 20.8977 14.8132 22.8348 14.8132C24.7719 14.8132 26.3478 16.3891 26.3478 18.3262Z" fill="#333333"/>
<path d="M0.635961 21.5684L3.73472 20.8109C4.01042 20.7435 4.17924 20.4654 4.11189 20.1898C4.04454 19.9141 3.76637 19.7456 3.49074 19.8126L0.391913 20.5701C0.116212 20.6375 -0.0526071 20.9156 0.0147424 21.1913C0.0720888 21.426 0.282222 21.5832 0.513526 21.5832C0.553881 21.5832 0.594989 21.5784 0.635961 21.5684Z" fill="#333333"/>
<path d="M7.50758 25.3444L4.40882 26.1019C4.13312 26.1694 3.9643 26.4475 4.03165 26.7231C4.089 26.9578 4.29913 27.1151 4.53043 27.1151C4.57079 27.1151 4.6119 27.1103 4.65287 27.1003L7.75162 26.3428C8.02732 26.2754 8.19614 25.9973 8.12879 25.7216C8.06144 25.446 7.78328 25.2773 7.50758 25.3444Z" fill="#333333"/>
<path d="M6.03251 22.2243L1.21226 23.4637C0.937382 23.5344 0.771852 23.8145 0.842558 24.0893C0.902234 24.3213 1.11093 24.4754 1.33983 24.4754C1.38218 24.4754 1.42527 24.4701 1.46816 24.459L6.28841 23.2196C6.56329 23.1489 6.72882 22.8688 6.65811 22.594C6.58741 22.3191 6.30718 22.1534 6.03251 22.2243Z" fill="#333333"/>
<path d="M6.09127 20.2749C6.13046 20.2749 6.1702 20.2705 6.20994 20.261L6.86117 20.107C7.13735 20.0416 7.30829 19.7648 7.243 19.4886C7.17763 19.2124 6.9007 19.0415 6.62466 19.1068L5.97343 19.2608C5.69725 19.3262 5.52631 19.603 5.5916 19.8792C5.64758 20.1156 5.85846 20.2749 6.09127 20.2749Z" fill="#333333"/>
<path d="M1.92289 26.8015L0.752253 27.077C0.476004 27.142 0.304718 27.4186 0.369738 27.6949C0.42544 27.9316 0.636464 28.0912 0.869481 28.0912C0.908465 28.0912 0.947998 28.0867 0.987599 28.0774L2.15823 27.8019C2.43448 27.7369 2.60577 27.4602 2.54075 27.184C2.47573 26.9077 2.19914 26.7367 1.92289 26.8015Z" fill="#333333"/>
</g>
<defs>
<clipPath id="clip0">
<rect width="35" height="35" fill="white"/>
</clipPath>
</defs>
</svg>
